<svg width="158" height="158" viewBox="0 0 158 158" fill="none" xmlns="http://www.w3.org/2000/svg">
<g clip-path="url(#clip0_47_15)" filter="url(#filter0_d_47_15)">
<path d="M79 0.292969C37.7403 0.292969 4.29297 33.7403 4.29297 75C4.29297 116.26 37.7403 149.707 79 149.707C120.26 149.707 153.707 116.26 153.707 75C153.707 33.7403 120.26 0.292969 79 0.292969ZM79 128.362C49.5288 128.362 25.6378 104.471 25.6378 75C25.6378 45.5288 49.5288 21.6378 79 21.6378C108.471 21.6378 132.362 45.5288 132.362 75C132.362 104.471 108.471 128.362 79 128.362Z" fill="white"/>
</g>
<defs>
<filter id="filter0_d_47_15" x="0" y="0" width="158" height="158" filterUnits="userSpaceOnUse" color-interpolation-filters="sRGB">
<feFlood flood-opacity="0" result="BackgroundImageFix"/>
<feColorMatrix in="SourceAlpha" type="matrix" values="0 0 0 0 0 0 0 0 0 0 0 0 0 0 0 0 0 0 127 0" result="hardAlpha"/>
<feOffset dy="4"/>
<feGaussianBlur stdDeviation="2"/>
<feComposite in2="hardAlpha" operator="out"/>
<feColorMatrix type="matrix" values="0 0 0 0 0 0 0 0 0 0 0 0 0 0 0 0 0 0 0.25 0"/>
<feBlend mode="normal" in2="BackgroundImageFix" result="effect1_dropShadow_47_15"/>
<feBlend mode="normal" in="SourceGraphic" in2="effect1_dropShadow_47_15" result="shape"/>
</filter>
<clipPath id="clip0_47_15">
<rect width="150" height="150" fill="white" transform="translate(4)"/>
</clipPath>
</defs>
</svg>
